{"title":"The Help (2011)","uid":6606389,"size":724588854,"categoryP":"other","categoryS":"other","magnet":"?xt=urn:btih:f62c0b7b276e162ef701c96bc66662f303512325&amp;dn=The+Help+%282011%29&amp;tr=udp%3A%2F%2Ftracker.openbittorrent.com%3A80&amp;tr=udp%3A%2F%2Fopen.demonii.com%3A1337&amp;tr=udp%3A%2F%2Ftracker.coppersurfer.tk%3A6969&amp;tr=udp%3A%2F%2Fexodus.desync.com%3A6969","seeders":0,"leechers":1,"uploader":"tombfyre","files":3,"time":1313415141,"description":"\nx           x              x                  xxxxxxx\n x         x               x                  x     x\n  x       x                x                  x     x\n   x     x                 x                  xxxxxxx \n    x   x                  x                  x\n     x x                   x                  x\n      x                    x                  x\n\n\nere we are with a nice encode of this one for you all. Now for the video we just made a script \ncontaining white balance, rgb eq, sharpness, chroma, brightness, contrast ect. Not a great video, but watchable.\nThe video was missing in 2 spots for about 30-40 seconds each, but nothing is missed really. The audio\nwe got from a friend thanks bro... With the audio it was just a matter of syncing it to the video.\n\nEnjoy ;)\n\n\nRipper ...........:Lamer                                         \nIMDB Rating.......:4.9/10                             \nVideo Codec.......:XVID                                            \nRelease Date......:16/02/11\nAudio Codec.......:AC-3                                            \nTheatre Date......:14/01/11\nAudio Bitrate.....:256                                             Runtime...........:1h 42mn\nSubtitles.........:NIL                                             Language..........:ENGLISH\nResolution........:688 x 384                                       \nIMDb URL..........:http://www.imdb.com/title/tt1578/\n\n[color=yellow]DETAILS:[/color]\n\nVideo\nID                               : 0\nFormat                           : MPEG-4 Visual\nFormat profile                   : Advanced Simple@L5\nFormat settings, BVOP            : Yes\nFormat settings, QPel            : No\nFormat settings, GMC             : No warppoints\nFormat settings, Matrix          : Default (MPEG)\nMuxing mode                      : Packed bitstream\nCodec ID                         : XVID\nCodec ID/Hint                    : XviD\nDuration                         : 1h 42mn\nBit rate                         : 1 786 Kbps\nWidth                            : 688 pixels\nHeight                           : 384 pixels\nDisplay aspect ratio             : 16:9\nFrame rate                       : 25.000 fps\nColor space                      : YUV\nChroma subsampling               : 4:2:0\nBit depth                        : 8 bits\nScan type                        : Progressive\nBits/(Pixel*Frame)               : 0.270\nStream size                      : 1.28 GiB (87%)\nWriting library                  : XviD 61\n\nAudio\nID                               : 1\nFormat                           : AC-3\nFormat/Info                      : Audio Coding 3\nMode extension                   : CM (complete main)\nCodec ID                         : 2000\nDuration                         : 1h 42mn\nBit rate mode                    : Constant\nBit rate                         : 256 Kbps\nChannel(s)                       : 2 channels\nChannel positions                : Front: L R\nSampling rate                    : 48.0 KHz\nBit depth                        : 16 bits\nStream size                      : 188 MiB (12%)\nAlignment                        : Aligned on interleaves\nInterleave, duration             : 40 ms (1.00 video frame)\nInterleave, preload duration     : 512 ms\n","torrent":{"xt":"urn:btih:f62c0b7b276e162ef701c96bc66662f303512325","amp;dn":"The+Help+%282011%29","amp;tr":["udp%3A%2F%2Ftracker.openbittorrent.com%3A80","udp%3A%2F%2Fopen.demonii.com%3A1337","udp%3A%2F%2Ftracker.coppersurfer.tk%3A6969","udp%3A%2F%2Fexodus.desync.com%3A6969"],"infoHash":"f62c0b7b276e162ef701c96bc66662f303512325","infoHashBuffer":{"type":"Buffer","data":[246,44,11,123,39,110,22,46,247,1,201,107,198,102,98,243,3,81,35,37]},"announce":[],"urlList":[]}}